{"asset":{"version":"2.0","generator":"Blockbench 4.5.2 glTF exporter"},"scenes":[{"nodes":[6],"name":"blockbench_export"}],"scene":0,"nodes":[{"name":"body","mesh":0},{"name":"door","mesh":1},{"name":"wheel_backLeft","mesh":2},{"name":"wheel_backRight","mesh":3},{"name":"wheel_frontLeft","mesh":4},{"name":"wheel_frontRight","mesh":5},{"children":[0,1,2,3,4,5]}],"bufferViews":[{"buffer":0,"byteOffset":0,"byteLength":22896,"target":34962,"byteStride":12},{"buffer":0,"byteOffset":22896,"byteLength":22896,"target":34962,"byteStride":12},{"buffer":0,"byteOffset":45792,"byteLength":15264,"target":34962,"byteStride":8},{"buffer":0,"byteOffset":61056,"byteLength":3816,"target":34963},{"buffer":0,"byteOffset":64872,"byteLength":720,"target":34962,"byteStride":12},{"buffer":0,"byteOffset":65592,"byteLength":720,"target":34962,"byteStride":12},{"buffer":0,"byteOffset":66312,"byteLength":480,"target":34962,"byteStride":8},{"buffer":0,"byteOffset":66792,"byteLength":120,"target":34963},{"buffer":0,"byteOffset":66912,"byteLength":13680,"target":34962,"byteStride":12},{"buffer":0,"byteOffset":80592,"byteLength":13680,"target":34962,"byteStride":12},{"buffer":0,"byteOffset":94272,"byteLength":9120,"target":34962,"byteStride":8},{"buffer":0,"byteOffset":103392,"byteLength":2280,"target":34963},{"buffer":0,"byteOffset":105672,"byteLength":13680,"target":34962,"byteStride":12},{"buffer":0,"byteOffset":119352,"byteLength":13680,"target":34962,"byteStride":12},{"buffer":0,"byteOffset":133032,"byteLength":9120,"target":34962,"byteStride":8},{"buffer":0,"byteOffset":142152,"byteLength":2280,"target":34963},{"buffer":0,"byteOffset":144432,"byteLength":13680,"target":34962,"byteStride":12},{"buffer":0,"byteOffset":158112,"byteLength":13680,"target":34962,"byteStride":12},{"buffer":0,"byteOffset":171792,"byteLength":9120,"target":34962,"byteStride":8},{"buffer":0,"byteOffset":180912,"byteLength":2280,"target":34963},{"buffer":0,"byteOffset":183192,"byteLength":13680,"target":34962,"byteStride":12},{"buffer":0,"byteOffset":196872,"byteLength":13680,"target":34962,"byteStride":12},{"buffer":0,"byteOffset":210552,"byteLength":9120,"target":34962,"byteStride":8},{"buffer":0,"byteOffset":219672,"byteLength":2280,"target":34963}],"buffers":[{"byteLength":221952,"uri":"data:application/octet-stream;base64,"}],"accessors":[{"bufferView":0,"componentType":5126,"count":1908,"max":[0.75,1.600000023841858,1.5499999523162842],"min":[-0.75,0.20000000298023224,-1.600000023841858],"type":"VEC3"},{"bufferView":1,"componentType":5126,"count":1908,"max":[1,1,1],"min":[-1,-1,-1],"type":"VEC3"},{"bufferView":2,"componentType":5126,"count":1908,"max":[0.78125,1],"min":[0,0.2687736749649048],"type":"VEC2"},{"bufferView":3,"componentType":5123,"count":1908,"max":[1907],"min":[0],"type":"SCALAR"},{"bufferView":4,"componentType":5126,"count":60,"max":[0.550000011920929,1.5,-1.4500000476837158],"min":[-0.550000011920929,0.5,-1.5],"type":"VEC3"},{"bufferView":5,"componentType":5126,"count":60,"max":[1,1,1],"min":[-1,-1,-1],"type":"VEC3"},{"bufferView":6,"componentType":5126,"count":60,"max":[21.653539657592773,0.9842519760131836],"min":[-21.653539657592773,-39.370079040527344],"type":"VEC2"},{"bufferView":7,"componentType":5123,"count":60,"max":[59],"min":[0],"type":"SCALAR"},{"bufferView":8,"componentType":5126,"count":1140,"max":[0.6000000238418579,0.6000000238418579,-0.3100000023841858],"min":[0.3499999940395355,0,-0.9100000262260437],"type":"VEC3"},{"bufferView":9,"componentType":5126,"count":1140,"max":[1,0.9914449453353882,0.9914447665214539],"min":[-1,-0.9914448261260986,-0.9914449453353882],"type":"VEC3"},{"bufferView":10,"componentType":5126,"count":1140,"max":[11.811019897460938,11.811019897460938],"min":[-11.811019897460938,-11.811019897460938],"type":"VEC2"},{"bufferView":11,"componentType":5123,"count":1140,"max":[1139],"min":[0],"type":"SCALAR"},{"bufferView":12,"componentType":5126,"count":1140,"max":[-0.3499999940395355,0.6000000238418579,-0.3100000023841858],"min":[-0.6000000238418579,0,-0.9100000262260437],"type":"VEC3"},{"bufferView":13,"componentType":5126,"count":1140,"max":[1,0.9914449453353882,0.9914447665214539],"min":[-1,-0.9914448261260986,-0.9914449453353882],"type":"VEC3"},{"bufferView":14,"componentType":5126,"count":1140,"max":[11.811019897460938,11.811019897460938],"min":[-11.811019897460938,-11.811019897460938],"type":"VEC2"},{"bufferView":15,"componentType":5123,"count":1140,"max":[1139],"min":[0],"type":"SCALAR"},{"bufferView":16,"componentType":5126,"count":1140,"max":[0.6000000238418579,0.6000000238418579,1.309999942779541],"min":[0.3499999940395355,0,0.7099999785423279],"type":"VEC3"},{"bufferView":17,"componentType":5126,"count":1140,"max":[1,0.991445004940033,0.9914453029632568],"min":[-1,-0.9914448857307434,-0.9914449453353882],"type":"VEC3"},{"bufferView":18,"componentType":5126,"count":1140,"max":[11.811019897460938,11.811019897460938],"min":[-11.811019897460938,-11.811019897460938],"type":"VEC2"},{"bufferView":19,"componentType":5123,"count":1140,"max":[1139],"min":[0],"type":"SCALAR"},{"bufferView":20,"componentType":5126,"count":1140,"max":[-0.3499999940395355,0.6000000238418579,1.309999942779541],"min":[-0.6000000238418579,0,0.7099999785423279],"type":"VEC3"},{"bufferView":21,"componentType":5126,"count":1140,"max":[1,0.991445004940033,0.9914453029632568],"min":[-1,-0.9914448857307434,-0.9914449453353882],"type":"VEC3"},{"bufferView":22,"componentType":5126,"count":1140,"max":[11.811019897460938,11.811019897460938],"min":[-11.811019897460938,-11.811019897460938],"type":"VEC2"},{"bufferView":23,"componentType":5123,"count":1140,"max":[1139],"min":[0],"type":"SCALAR"}],"materials":[{"pbrMetallicRoughness":{"metallicFactor":0,"roughnessFactor":1,"baseColorTexture":{"index":0}},"alphaMode":"MASK","alphaCutoff":0.05,"doubleSided":true},{"pbrMetallicRoughness":{"metallicFactor":0,"roughnessFactor":1},"alphaMode":"MASK","alphaCutoff":0.05,"doubleSided":true}],"textures":[{"sampler":0,"source":0,"name":"texture"}],"samplers":[{"magFilter":9728,"minFilter":9728,"wrapS":33071,"wrapT":33071}],"images":[{"mimeType":"image/png","uri":"data:image/png;base64,"}],"meshes":[{"primitives":[{"mode":4,"attributes":{"POSITION":0,"NORMAL":1,"TEXCOORD_0":2},"indices":3,"material":0}]},{"primitives":[{"mode":4,"attributes":{"POSITION":4,"NORMAL":5,"TEXCOORD_0":6},"indices":7,"material":1}]},{"primitives":[{"mode":4,"attributes":{"POSITION":8,"NORMAL":9,"TEXCOORD_0":10},"indices":11,"material":1}]},{"primitives":[{"mode":4,"attributes":{"POSITION":12,"NORMAL":13,"TEXCOORD_0":14},"indices":15,"material":1}]},{"primitives":[{"mode":4,"attributes":{"POSITION":16,"NORMAL":17,"TEXCOORD_0":18},"indices":19,"material":1}]},{"primitives":[{"mode":4,"attributes":{"POSITION":20,"NORMAL":21,"TEXCOORD_0":22},"indices":23,"material":1}]}]}