{"asset":{"version":"2.0","generator":"Blockbench 4.5.2 glTF exporter"},"scenes":[{"nodes":[5],"name":"blockbench_export"}],"scene":0,"nodes":[{"name":"body","mesh":0},{"name":"wheel_backLeft","mesh":1},{"name":"wheel_backRight","mesh":2},{"name":"wheel_frontLeft","mesh":3},{"name":"wheel_frontRight","mesh":4},{"children":[0,1,2,3,4]}],"bufferViews":[{"buffer":0,"byteOffset":0,"byteLength":26640,"target":34962,"byteStride":12},{"buffer":0,"byteOffset":26640,"byteLength":26640,"target":34962,"byteStride":12},{"buffer":0,"byteOffset":53280,"byteLength":17760,"target":34962,"byteStride":8},{"buffer":0,"byteOffset":71040,"byteLength":4440,"target":34963},{"buffer":0,"byteOffset":75480,"byteLength":10224,"target":34962,"byteStride":12},{"buffer":0,"byteOffset":85704,"byteLength":10224,"target":34962,"byteStride":12},{"buffer":0,"byteOffset":95928,"byteLength":6816,"target":34962,"byteStride":8},{"buffer":0,"byteOffset":102744,"byteLength":1704,"target":34963},{"buffer":0,"byteOffset":104448,"byteLength":10224,"target":34962,"byteStride":12},{"buffer":0,"byteOffset":114672,"byteLength":10224,"target":34962,"byteStride":12},{"buffer":0,"byteOffset":124896,"byteLength":6816,"target":34962,"byteStride":8},{"buffer":0,"byteOffset":131712,"byteLength":1704,"target":34963},{"buffer":0,"byteOffset":133416,"byteLength":10224,"target":34962,"byteStride":12},{"buffer":0,"byteOffset":143640,"byteLength":10224,"target":34962,"byteStride":12},{"buffer":0,"byteOffset":153864,"byteLength":6816,"target":34962,"byteStride":8},{"buffer":0,"byteOffset":160680,"byteLength":1704,"target":34963},{"buffer":0,"byteOffset":162384,"byteLength":10224,"target":34962,"byteStride":12},{"buffer":0,"byteOffset":172608,"byteLength":10224,"target":34962,"byteStride":12},{"buffer":0,"byteOffset":182832,"byteLength":6816,"target":34962,"byteStride":8},{"buffer":0,"byteOffset":189648,"byteLength":1704,"target":34963}],"buffers":[{"byteLength":191352,"uri":"data:application/octet-stream;base64,"}],"accessors":[{"bufferView":0,"componentType":5126,"count":2220,"max":[0.6499999761581421,0.8325443267822266,1.3298859596252441],"min":[-0.6499999761581421,0.20000000298023224,-1.3298859596252441],"type":"VEC3"},{"bufferView":1,"componentType":5126,"count":2220,"max":[1,1,1],"min":[-1,-1,-1],"type":"VEC3"},{"bufferView":2,"componentType":5126,"count":2220,"max":[0.510937511920929,1],"min":[0,0.46875],"type":"VEC2"},{"bufferView":3,"componentType":5123,"count":2220,"max":[2219],"min":[0],"type":"SCALAR"},{"bufferView":4,"componentType":5126,"count":852,"max":[0.6000000238418579,0.6000000238418579,-0.6301137208938599],"min":[0.30000001192092896,0,-1.2301139831542969],"type":"VEC3"},{"bufferView":5,"componentType":5126,"count":852,"max":[1,0.9914449453353882,0.9914447665214539],"min":[-1,-0.9914448261260986,-0.9914453029632568],"type":"VEC3"},{"bufferView":6,"componentType":5126,"count":852,"max":[12.53046989440918,11.811019897460938],"min":[-12.53046989440918,-11.811019897460938],"type":"VEC2"},{"bufferView":7,"componentType":5123,"count":852,"max":[851],"min":[0],"type":"SCALAR"},{"bufferView":8,"componentType":5126,"count":852,"max":[-0.30000001192092896,0.6000000238418579,-0.6301137208938599],"min":[-0.6000000238418579,0,-1.2301139831542969],"type":"VEC3"},{"bufferView":9,"componentType":5126,"count":852,"max":[1,0.9914449453353882,0.9914447665214539],"min":[-1,-0.9914448261260986,-0.9914453029632568],"type":"VEC3"},{"bufferView":10,"componentType":5126,"count":852,"max":[0.8709006309509277,1],"min":[0,0.12909939885139465],"type":"VEC2"},{"bufferView":11,"componentType":5123,"count":852,"max":[851],"min":[0],"type":"SCALAR"},{"bufferView":12,"componentType":5126,"count":852,"max":[0.6000000238418579,0.6000000238418579,0.8898863196372986],"min":[0.30000001192092896,0,0.2898862063884735],"type":"VEC3"},{"bufferView":13,"componentType":5126,"count":852,"max":[1,0.9914449453353882,0.9914447665214539],"min":[-1,-0.9914448857307434,-0.9914447665214539],"type":"VEC3"},{"bufferView":14,"componentType":5126,"count":852,"max":[12.53046989440918,11.811019897460938],"min":[-12.53046989440918,-11.811019897460938],"type":"VEC2"},{"bufferView":15,"componentType":5123,"count":852,"max":[851],"min":[0],"type":"SCALAR"},{"bufferView":16,"componentType":5126,"count":852,"max":[-0.30000001192092896,0.6000000238418579,0.8898863196372986],"min":[-0.6000000238418579,0,0.2898862063884735],"type":"VEC3"},{"bufferView":17,"componentType":5126,"count":852,"max":[1,0.9914449453353882,0.9914447665214539],"min":[-1,-0.9914448857307434,-0.9914447665214539],"type":"VEC3"},{"bufferView":18,"componentType":5126,"count":852,"max":[12.53046989440918,11.811019897460938],"min":[-12.53046989440918,-11.811019897460938],"type":"VEC2"},{"bufferView":19,"componentType":5123,"count":852,"max":[851],"min":[0],"type":"SCALAR"}],"materials":[{"pbrMetallicRoughness":{"metallicFactor":0,"roughnessFactor":1,"baseColorTexture":{"index":0}},"alphaMode":"MASK","alphaCutoff":0.05,"doubleSided":true},{"pbrMetallicRoughness":{"metallicFactor":0,"roughnessFactor":1},"alphaMode":"MASK","alphaCutoff":0.05,"doubleSided":true},{"pbrMetallicRoughness":{"metallicFactor":0,"roughnessFactor":1,"baseColorTexture":{"index":1}},"alphaMode":"MASK","alphaCutoff":0.05,"doubleSided":true}],"textures":[{"sampler":0,"source":0,"name":"texture"},{"sampler":1,"source":1,"name":"texture"}],"samplers":[{"magFilter":9728,"minFilter":9728,"wrapS":33071,"wrapT":33071},{"magFilter":9728,"minFilter":9728,"wrapS":33071,"wrapT":33071}],"images":[{"mimeType":"image/png","uri":"data:image/png;base64,"},{"mimeType":"image/png","uri":"data:image/png;base64,"}],"meshes":[{"primitives":[{"mode":4,"attributes":{"POSITION":0,"NORMAL":1,"TEXCOORD_0":2},"indices":3,"material":0}]},{"primitives":[{"mode":4,"attributes":{"POSITION":4,"NORMAL":5,"TEXCOORD_0":6},"indices":7,"material":1}]},{"primitives":[{"mode":4,"attributes":{"POSITION":8,"NORMAL":9,"TEXCOORD_0":10},"indices":11,"material":2}]},{"primitives":[{"mode":4,"attributes":{"POSITION":12,"NORMAL":13,"TEXCOORD_0":14},"indices":15,"material":1}]},{"primitives":[{"mode":4,"attributes":{"POSITION":16,"NORMAL":17,"TEXCOORD_0":18},"indices":19,"material":1}]}]}